<svg xmlns="http://www.w3.org/2000/svg" version="1.1" xmlns:xlink="http://www.w3.org/1999/xlink" xmlns:svgjs="http://svgjs.dev/svgjs" width="2000" height="641" viewBox="0 0 2000 641"><g transform="matrix(1,0,0,1,-1.2121212121212466,-0.12516307403461724)"><svg viewBox="0 0 396 127" data-background-color="#1a1a1a" preserveAspectRatio="xMidYMid meet" height="641" width="2000" xmlns="http://www.w3.org/2000/svg" xmlns:xlink="http://www.w3.org/1999/xlink"><g id="tight-bounds" transform="matrix(1,0,0,1,0.2400000000000091,0.024798300159744713)"><svg viewBox="0 0 395.52 126.95040339968054" height="126.95040339968054" width="395.52"><g><svg viewBox="0 0 397.4975999999999 127.58515541667893" height="126.95040339968054" width="395.52"><g><rect width="397.4975999999999" height="2.831314032313098" x="0" y="85.94613153463331" fill="#d8a016" opacity="1" stroke-width="0" stroke="transparent" fill-opacity="1" class="rect-yte-0" data-fill-palette-color="primary" rx="1%" id="yte-0" data-palette-color="#d8a016"></rect></g><g transform="matrix(1,0,0,1,0.9887999999999693,96.18926240546237)"><svg viewBox="0 0 395.52 31.395893011216565" height="31.395893011216565" width="395.52"><g id="textblocktransform"><svg viewBox="0 0 395.52 31.395893011216565" height="31.395893011216565" width="395.52" id="textblock"><g><svg viewBox="0 0 395.52 31.395893011216565" height="31.395893011216565" width="395.52"><g transform="matrix(1,0,0,1,0,0)"><svg width="395.52" viewBox="2.65 -36.1 463.57000000000005 36.800000000000004" height="31.395893011216565" data-palette-color="#d8a016"><path d="M18.55-36.1Q23.3-36.1 26.88-33.95 30.45-31.8 32.43-27.73 34.4-23.65 34.4-18L34.4-18Q34.4-12.5 32.38-8.25 30.35-4 26.73-1.65 23.1 0.7 18.5 0.7L18.5 0.7Q13.75 0.7 10.18-1.45 6.6-3.6 4.63-7.68 2.65-11.75 2.65-17.4L2.65-17.4Q2.65-22.9 4.67-27.15 6.7-31.4 10.33-33.75 13.95-36.1 18.55-36.1L18.55-36.1ZM18.35-35.2Q15.15-35.2 12.73-32.98 10.3-30.75 8.97-26.75 7.65-22.75 7.65-17.6L7.65-17.6Q7.65-12.4 9.13-8.45 10.6-4.5 13.1-2.35 15.6-0.2 18.7-0.2L18.7-0.2Q21.9-0.2 24.33-2.43 26.75-4.65 28.08-8.65 29.4-12.65 29.4-17.8L29.4-17.8Q29.4-23 27.93-26.95 26.45-30.9 23.95-33.05 21.45-35.2 18.35-35.2L18.35-35.2ZM51.2-12.3L47.85-12.3 47.85-5.3Q47.85-3.4 48.15-2.55 48.45-1.7 49.27-1.4 50.1-1.1 51.9-1L51.9-1 51.9 0Q49.6-0.15 45.55-0.15L45.55-0.15Q41.25-0.15 39.15 0L39.15 0 39.15-1Q40.95-1.1 41.77-1.4 42.6-1.7 42.9-2.55 43.2-3.4 43.2-5.3L43.2-5.3 43.2-25.1Q43.2-27 42.9-27.85 42.6-28.7 41.77-29 40.95-29.3 39.15-29.4L39.15-29.4 39.15-30.4Q41.25-30.25 45.25-30.25L45.25-30.25 50.65-30.3Q51.6-30.35 52.8-30.35L52.8-30.35Q58.15-30.35 61-28.08 63.85-25.8 63.85-22L63.85-22Q63.85-19.6 62.67-17.4 61.5-15.2 58.67-13.75 55.85-12.3 51.2-12.3L51.2-12.3ZM51.55-29.4Q50-29.4 49.22-29.05 48.45-28.7 48.15-27.8 47.85-26.9 47.85-25.1L47.85-25.1 47.85-13.3 50.7-13.3Q55.3-13.3 57.07-15.5 58.85-17.7 58.85-21.45L58.85-21.45Q58.85-25.5 57.15-27.45 55.45-29.4 51.55-29.4L51.55-29.4ZM97-30.4L97-29.4Q95.25-29.3 94.4-28.88 93.55-28.45 93.25-27.48 92.95-26.5 92.95-24.6L92.95-24.6 92.95-13.55Q92.95-10.1 92.47-7.68 92-5.25 90.9-3.45L90.9-3.45Q89.7-1.55 87.42-0.43 85.15 0.7 82.25 0.7L82.25 0.7Q77.1 0.7 74.35-1.5L74.35-1.5Q72.15-3.45 71.4-5.95 70.65-8.45 70.65-13.4L70.65-13.4 70.65-25.1Q70.65-27 70.35-27.85 70.05-28.7 69.22-29 68.4-29.3 66.6-29.4L66.6-29.4 66.6-30.4Q68.7-30.25 73-30.25L73-30.25Q77-30.25 79.35-30.4L79.35-30.4 79.35-29.4Q77.55-29.3 76.72-29 75.9-28.7 75.6-27.85 75.3-27 75.3-25.1L75.3-25.1 75.3-12.55Q75.3-8.85 75.8-6.43 76.3-4 77.92-2.53 79.55-1.05 82.7-1.05L82.7-1.05Q87.7-1.05 89.75-4.2 91.8-7.35 91.8-13L91.8-13 91.8-24.6Q91.8-27.3 90.82-28.3 89.85-29.3 87.25-29.4L87.25-29.4 87.25-30.4Q89.05-30.25 92.35-30.25L92.35-30.25Q95.35-30.25 97-30.4L97-30.4ZM113.09-30.4L113.09-29.4Q111.29-29.3 110.47-29 109.64-28.7 109.34-27.85 109.04-27 109.04-25.1L109.04-25.1 109.04-5.3Q109.04-3.4 109.34-2.55 109.64-1.7 110.47-1.43 111.29-1.15 113.09-1.15L113.09-1.15 116.24-1.15Q119.69-1.15 121.62-3.2 123.54-5.25 123.94-10L123.94-10 125.09-10Q124.94-8.45 124.94-5.9L124.94-5.9Q124.94-3.3 125.29 0L125.29 0Q122.04-0.15 114.34-0.15L114.34-0.15Q105.09-0.15 100.34 0L100.34 0 100.34-1Q102.14-1.1 102.97-1.4 103.79-1.7 104.09-2.55 104.39-3.4 104.39-5.3L104.39-5.3 104.39-25.1Q104.39-27 104.09-27.85 103.79-28.7 102.97-29 102.14-29.3 100.34-29.4L100.34-29.4 100.34-30.4Q102.44-30.25 106.74-30.25L106.74-30.25Q110.74-30.25 113.09-30.4L113.09-30.4ZM153.59-5.9Q153.59-3.3 153.94 0L153.94 0Q150.69-0.15 142.99-0.15L142.99-0.15Q133.74-0.15 128.99 0L128.99 0 128.99-1Q130.79-1.1 131.62-1.4 132.44-1.7 132.74-2.55 133.04-3.4 133.04-5.3L133.04-5.3 133.04-25.1Q133.04-27 132.74-27.85 132.44-28.7 131.62-29 130.79-29.3 128.99-29.4L128.99-29.4 128.99-30.4Q133.74-30.25 142.99-30.25L142.99-30.25Q149.99-30.25 152.94-30.4L152.94-30.4Q152.59-27.4 152.59-25L152.59-25Q152.59-23.05 152.74-21.9L152.74-21.9 151.59-21.9Q151.24-26 149.87-27.63 148.49-29.25 145.39-29.25L145.39-29.25 141.74-29.25Q139.94-29.25 139.12-28.98 138.29-28.7 137.99-27.85 137.69-27 137.69-25.1L137.69-25.1 137.69-15.8 141.84-15.8Q143.44-15.8 144.29-16.63 145.14-17.45 145.44-18.43 145.74-19.4 145.99-20.9L145.99-20.9 147.14-20.9Q146.99-19.2 146.99-17.2L146.99-17.2 146.99-15.3Q146.99-13.35 147.29-9.7L147.29-9.7 146.14-9.7Q145.84-12.1 144.99-13.45 144.14-14.8 141.84-14.8L141.84-14.8 137.69-14.8 137.69-5.3Q137.69-3.4 137.99-2.55 138.29-1.7 139.12-1.43 139.94-1.15 141.74-1.15L141.74-1.15 145.39-1.15Q147.89-1.15 149.34-1.95 150.79-2.75 151.54-4.53 152.29-6.3 152.59-9.5L152.59-9.5 153.74-9.5Q153.59-8.15 153.59-5.9L153.59-5.9ZM189.14-30.4L189.14-29.4Q187.39-29.3 186.54-28.88 185.69-28.45 185.39-27.48 185.09-26.5 185.09-24.6L185.09-24.6 185.09 0.25 183.94 0.25 163.94-27.45 163.94-5.8Q163.94-3.85 164.26-2.9 164.59-1.95 165.54-1.53 166.49-1.1 168.49-1L168.49-1 168.49 0Q166.69-0.15 163.39-0.15L163.39-0.15Q160.39-0.15 158.74 0L158.74 0 158.74-1Q160.49-1.1 161.34-1.53 162.19-1.95 162.49-2.93 162.79-3.9 162.79-5.8L162.79-5.8 162.79-25.1Q162.79-27 162.49-27.85 162.19-28.7 161.36-29 160.54-29.3 158.74-29.4L158.74-29.4 158.74-30.4Q160.39-30.25 163.39-30.25L163.39-30.25Q166.09-30.25 167.99-30.4L167.99-30.4 183.94-8.2 183.94-24.6Q183.94-26.55 183.61-27.5 183.29-28.45 182.34-28.88 181.39-29.3 179.39-29.4L179.39-29.4 179.39-30.4Q181.19-30.25 184.49-30.25L184.49-30.25Q187.49-30.25 189.14-30.4L189.14-30.4ZM207.89-31.1Q210.34-31.1 212.04-30.28 213.74-29.45 215.59-27.85L215.59-27.85Q216.14-27.4 216.54-27.4L216.54-27.4Q217.54-27.4 217.84-30.4L217.84-30.4 218.99-30.4Q218.79-27.4 218.79-19.9L218.79-19.9 217.64-19.9Q217.14-22.5 216.64-23.75 216.14-25 215.14-26.3L215.14-26.3Q213.74-28.15 211.79-29.13 209.84-30.1 207.69-30.1L207.69-30.1Q204.74-30.1 202.56-28.3 200.39-26.5 199.19-23.1 197.99-19.7 197.99-15.1L197.99-15.1Q197.99-10.4 199.31-7.08 200.64-3.75 202.91-2.02 205.19-0.3 208.04-0.3L208.04-0.3Q210.24-0.3 212.26-1.28 214.29-2.25 215.69-4.1L215.69-4.1Q216.64-5.4 217.11-6.85 217.59-8.3 217.99-11L217.99-11 219.14-11Q219.14-3.15 219.34 0L219.34 0 218.19 0Q218.04-1.55 217.74-2.27 217.44-3 216.94-3L216.94-3Q216.54-3 215.94-2.55L215.94-2.55Q214.04-0.95 212.24-0.13 210.44 0.7 207.84 0.7L207.84 0.7Q203.39 0.7 200.04-1.13 196.69-2.95 194.84-6.48 192.99-10 192.99-14.9L192.99-14.9Q192.99-19.7 194.89-23.38 196.79-27.05 200.19-29.08 203.59-31.1 207.89-31.1L207.89-31.1ZM249.13-5.9Q249.13-3.3 249.48 0L249.48 0Q246.23-0.15 238.53-0.15L238.53-0.15Q229.28-0.15 224.53 0L224.53 0 224.53-1Q226.33-1.1 227.16-1.4 227.98-1.7 228.28-2.55 228.58-3.4 228.58-5.3L228.58-5.3 228.58-25.1Q228.58-27 228.28-27.85 227.98-28.7 227.16-29 226.33-29.3 224.53-29.4L224.53-29.4 224.53-30.4Q229.28-30.25 238.53-30.25L238.53-30.25Q245.53-30.25 248.48-30.4L248.48-30.4Q248.13-27.4 248.13-25L248.13-25Q248.13-23.05 248.28-21.9L248.28-21.9 247.13-21.9Q246.78-26 245.41-27.63 244.03-29.25 240.93-29.25L240.93-29.25 237.28-29.25Q235.48-29.25 234.66-28.98 233.83-28.7 233.53-27.85 233.23-27 233.23-25.1L233.23-25.1 233.23-15.8 237.38-15.8Q238.98-15.8 239.83-16.63 240.68-17.45 240.98-18.43 241.28-19.4 241.53-20.9L241.53-20.9 242.68-20.9Q242.53-19.2 242.53-17.2L242.53-17.2 242.53-15.3Q242.53-13.35 242.83-9.7L242.83-9.7 241.68-9.7Q241.38-12.1 240.53-13.45 239.68-14.8 237.38-14.8L237.38-14.8 233.23-14.8 233.23-5.3Q233.23-3.4 233.53-2.55 233.83-1.7 234.66-1.43 235.48-1.15 237.28-1.15L237.28-1.15 240.93-1.15Q243.43-1.15 244.88-1.95 246.33-2.75 247.08-4.53 247.83-6.3 248.13-9.5L248.13-9.5 249.28-9.5Q249.13-8.15 249.13-5.9L249.13-5.9ZM306.08-34.4Q304.28-34.3 303.45-34 302.63-33.7 302.33-32.85 302.03-32 302.03-30.1L302.03-30.1 302.03-5.3Q302.03-3.4 302.33-2.55 302.63-1.7 303.45-1.4 304.28-1.1 306.08-1L306.08-1 306.08 0Q303.78-0.15 299.73-0.15L299.73-0.15Q295.43-0.15 293.33 0L293.33 0 293.33-1Q295.13-1.1 295.95-1.4 296.78-1.7 297.08-2.55 297.38-3.4 297.38-5.3L297.38-5.3 297.38-32.1 285.33 0.25 284.53 0.25 271.93-32.2 271.93-5.8Q271.93-3.85 272.25-2.9 272.58-1.95 273.53-1.53 274.48-1.1 276.48-1L276.48-1 276.48 0Q274.68-0.15 271.38-0.15L271.38-0.15Q268.38-0.15 266.73 0L266.73 0 266.73-1Q268.48-1.1 269.33-1.53 270.18-1.95 270.48-2.93 270.78-3.9 270.78-5.8L270.78-5.8 270.78-30.1Q270.78-32 270.48-32.85 270.18-33.7 269.35-34 268.53-34.3 266.73-34.4L266.73-34.4 266.73-35.4Q268.38-35.25 271.38-35.25L271.38-35.25Q273.98-35.25 275.63-35.4L275.63-35.4 286.63-6.45 297.38-35.25 299.73-35.25Q303.78-35.25 306.08-35.4L306.08-35.4 306.08-34.4ZM325.68-31.1Q330.28-31.1 333.75-29.28 337.23-27.45 339.13-23.93 341.03-20.4 341.03-15.5L341.03-15.5Q341.03-10.7 339.05-7.03 337.08-3.35 333.58-1.33 330.08 0.7 325.63 0.7L325.63 0.7Q321.03 0.7 317.55-1.13 314.08-2.95 312.18-6.48 310.28-10 310.28-14.9L310.28-14.9Q310.28-19.7 312.25-23.38 314.23-27.05 317.73-29.08 321.23-31.1 325.68-31.1L325.68-31.1ZM325.48-30.2Q322.43-30.2 320.1-28.28 317.78-26.35 316.53-22.93 315.28-19.5 315.28-15.1L315.28-15.1Q315.28-10.65 316.68-7.25 318.08-3.85 320.48-2.02 322.88-0.2 325.83-0.2L325.83-0.2Q328.88-0.2 331.2-2.13 333.53-4.05 334.78-7.48 336.03-10.9 336.03-15.3L336.03-15.3Q336.03-19.75 334.63-23.15 333.23-26.55 330.83-28.38 328.43-30.2 325.48-30.2L325.48-30.2ZM373.52-30.4Q373.17-27.1 373.17-24.5L373.17-24.5Q373.17-21.9 373.32-20.4L373.32-20.4 372.17-20.4Q371.87-23.9 371.22-25.75 370.57-27.6 369.12-28.43 367.67-29.25 364.97-29.25L364.97-29.25 361.77-29.25 361.77-5.8Q361.77-3.7 362.17-2.75 362.57-1.8 363.57-1.45 364.57-1.1 366.82-1L366.82-1 366.82 0Q364.22-0.15 359.47-0.15L359.47-0.15Q354.47-0.15 352.07 0L352.07 0 352.07-1Q354.32-1.1 355.32-1.45 356.32-1.8 356.72-2.75 357.12-3.7 357.12-5.8L357.12-5.8 357.12-29.25 353.92-29.25Q351.22-29.25 349.77-28.43 348.32-27.6 347.67-25.75 347.02-23.9 346.72-20.4L346.72-20.4 345.57-20.4Q345.72-22 345.72-24.5L345.72-24.5Q345.72-27.1 345.37-30.4L345.37-30.4Q349.52-30.25 359.47-30.25L359.47-30.25Q369.37-30.25 373.52-30.4L373.52-30.4ZM393.27-31.1Q397.87-31.1 401.35-29.28 404.82-27.45 406.72-23.93 408.62-20.4 408.62-15.5L408.62-15.5Q408.62-10.7 406.65-7.03 404.67-3.35 401.17-1.33 397.67 0.7 393.22 0.7L393.22 0.7Q388.62 0.7 385.15-1.13 381.67-2.95 379.77-6.48 377.87-10 377.87-14.9L377.87-14.9Q377.87-19.7 379.85-23.38 381.82-27.05 385.32-29.08 388.82-31.1 393.27-31.1L393.27-31.1ZM393.07-30.2Q390.02-30.2 387.7-28.28 385.37-26.35 384.12-22.93 382.87-19.5 382.87-15.1L382.87-15.1Q382.87-10.65 384.27-7.25 385.67-3.85 388.07-2.02 390.47-0.2 393.42-0.2L393.42-0.2Q396.47-0.2 398.8-2.13 401.12-4.05 402.37-7.48 403.62-10.9 403.62-15.3L403.62-15.3Q403.62-19.75 402.22-23.15 400.82-26.55 398.42-28.38 396.02-30.2 393.07-30.2L393.07-30.2ZM441.72-2.75L442.42-2.1Q441.47-0.75 440.24-0.03 439.02 0.7 437.32 0.7L437.32 0.7Q433.12 0.7 432.17-3.1L432.17-3.1 430.62-9.35Q429.92-12.15 428.54-13.1 427.17-14.05 424.47-14.05L424.47-14.05 421.62-14.05 421.62-5.3Q421.62-3.4 421.92-2.55 422.22-1.7 423.04-1.4 423.87-1.1 425.67-1L425.67-1 425.67 0Q423.37-0.15 419.32-0.15L419.32-0.15Q415.02-0.15 412.92 0L412.92 0 412.92-1Q414.72-1.1 415.54-1.4 416.37-1.7 416.67-2.55 416.97-3.4 416.97-5.3L416.97-5.3 416.97-25.1Q416.97-27 416.67-27.85 416.37-28.7 415.54-29 414.72-29.3 412.92-29.4L412.92-29.4 412.92-30.4Q415.02-30.25 419.02-30.25L419.02-30.25 424.12-30.3Q424.97-30.35 426.07-30.35L426.07-30.35Q431.67-30.35 434.64-28.25 437.62-26.15 437.62-22.8L437.62-22.8Q437.62-19.9 435.29-17.5 432.97-15.1 427.67-14.45L427.67-14.45Q428.67-14.35 429.37-14.25L429.37-14.25Q432.02-13.85 433.57-12.65 435.12-11.45 435.77-8.8L435.77-8.8 436.87-4.25Q437.27-2.5 437.74-1.78 438.22-1.05 438.97-1.05L438.97-1.05Q440.22-1.05 441.72-2.75L441.72-2.75ZM424.82-29.4Q423.47-29.4 422.79-29.05 422.12-28.7 421.87-27.8 421.62-26.9 421.62-25.1L421.62-25.1 421.62-15.05 424.97-15.05Q429.37-15.05 430.99-16.93 432.62-18.8 432.62-22.25L432.62-22.25Q432.62-25.85 430.79-27.63 428.97-29.4 424.82-29.4L424.82-29.4ZM454.82-31.1Q457.02-31.1 458.29-30.63 459.57-30.15 460.92-29.25L460.92-29.25Q462.02-28.55 462.62-28.55L462.62-28.55Q463.07-28.55 463.32-29.08 463.57-29.6 463.72-30.75L463.72-30.75 464.87-30.75Q464.62-28.15 464.62-21.55L464.62-21.55 463.47-21.55Q463.17-25.15 461.14-27.65 459.12-30.15 455.27-30.15L455.27-30.15Q452.62-30.15 450.89-28.75 449.17-27.35 449.17-25.2L449.17-25.2Q449.17-23.65 449.94-22.5 450.72-21.35 451.94-20.53 453.17-19.7 455.42-18.5L455.42-18.5 457.07-17.6Q460.17-15.95 462.04-14.65 463.92-13.35 465.07-11.68 466.22-10 466.22-7.8L466.22-7.8Q466.22-3.75 463.29-1.53 460.37 0.7 455.97 0.7L455.97 0.7Q453.57 0.7 452.04 0.2 450.52-0.3 449.12-1.15L449.12-1.15Q448.02-1.85 447.42-1.85L447.42-1.85Q446.97-1.85 446.72-1.33 446.47-0.8 446.32 0.35L446.32 0.35 445.17 0.35Q445.37-2.1 445.37-10.65L445.37-10.65 446.52-10.65Q446.87-6 449.02-3.15 451.17-0.3 455.62-0.3L455.62-0.3Q458.12-0.3 459.94-1.73 461.77-3.15 461.77-5.95L461.77-5.95Q461.77-7.6 460.82-8.88 459.87-10.15 458.27-11.15 456.67-12.15 453.82-13.65L453.82-13.65Q449.72-15.75 447.57-17.85 445.42-19.95 445.42-23.3L445.42-23.3Q445.42-27 448.14-29.05 450.87-31.1 454.82-31.1L454.82-31.1Z" opacity="1" transform="matrix(1,0,0,1,0,0)" fill="#d8a016" class="wordmark-text-0" data-fill-palette-color="primary" id="text-0"></path></svg></g></svg></g></svg></g></svg></g><g transform="matrix(1,0,0,1,47.4413485152254,0)"><svg viewBox="0 0 302.6149029695491 78.53431469611735" height="78.53431469611735" width="302.6149029695491"><g><svg xmlns="http://www.w3.org/2000/svg" xmlns:xlink="http://www.w3.org/1999/xlink" version="1.1" x="0" y="0" viewBox="0.738 41.41456159911447 98.31048651762472 25.513438400885526" enable-background="new 0 0 100 100" xml:space="preserve" height="78.53431469611735" width="302.6149029695491" class="icon-icon-0" data-fill-palette-color="accent" id="icon-0"><g fill="#d8a016" data-fill-palette-color="accent"><path d="M71.9 59.185A7.743 7.743 0 1 1 87.386 59.185 7.743 7.743 0 0 1 71.9 59.185M74.744 59.185A4.898 4.898 0 1 0 84.542 59.183 4.898 4.898 0 0 0 74.744 59.185M84.412 59.185A4.769 4.769 0 0 1 74.916 59.833C75.326 62.007 77.277 63.651 79.623 63.651 82.198 63.651 84.297 61.67 84.407 59.185zM83.564 57.339A4.334 4.334 0 1 1 75.687 57.41 4.23 4.23 0 0 1 83.564 57.339M79.643 54.959A4.225 4.225 0 1 0 79.645 63.409 4.225 4.225 0 0 0 79.643 54.959M77.377 59.483L78.327 59.635A1.35 1.35 0 0 0 79.854 60.545L80.43 61.308C80.474 61.383 80.553 61.417 80.611 61.384L80.933 61.204C80.993 61.171 81.005 61.087 80.966 61.012L80.622 60.116A1.354 1.354 0 0 0 80.645 58.336L81.018 57.455C81.063 57.382 81.05 57.296 80.994 57.261L80.679 57.073C80.621 57.039 80.537 57.069 80.495 57.141L79.89 57.885A1.36 1.36 0 0 0 78.337 58.756L77.387 58.873C77.302 58.872 77.233 58.924 77.233 58.99L77.226 59.36C77.226 59.427 77.292 59.482 77.377 59.483M82.104 59.274A2.5 2.5 0 0 1 81.684 60.569L82.505 61.126C82.865 60.594 83.074 59.967 83.098 59.311zM79.038 56.182L79.371 56.892C79.416 57 79.441 57.048 79.525 57.048H79.758C79.843 57.048 79.867 57 79.912 56.892L80.243 56.182A0.15 0.15 0 0 0 80.088 56.029H79.193A0.153 0.153 0 0 0 79.038 56.182M76.602 58.829L77.224 58.754A0.4 0.4 0 0 1 77.377 58.717L77.532 58.698C77.553 58.684 77.564 58.664 77.574 58.634L77.646 58.413C77.673 58.332 77.634 58.294 77.547 58.218L76.973 57.683A0.156 0.156 0 0 0 76.777 57.783L76.502 58.635A0.15 0.15 0 0 0 76.602 58.829M78.366 61.967L78.514 61.198C78.541 61.084 78.55 61.031 78.48 60.98L78.292 60.843C78.224 60.792 78.177 60.818 78.075 60.878L77.389 61.258A0.157 0.157 0 0 0 77.423 61.475L78.148 62.001A0.154 0.154 0 0 0 78.366 61.967M81.896 61.259L81.209 60.879C81.143 60.84 81.101 60.816 81.058 60.817L81.109 60.949C81.213 61.157 81.04 61.375 80.824 61.478L80.921 61.966A0.154 0.154 0 0 0 81.138 62.001L81.862 61.475A0.157 0.157 0 0 0 81.896 61.259M82.312 57.683L81.738 58.218C81.649 58.294 81.612 58.332 81.638 58.413L81.711 58.634C81.735 58.716 81.791 58.725 81.906 58.735L82.684 58.83A0.154 0.154 0 0 0 82.784 58.635L82.507 57.784A0.153 0.153 0 0 0 82.312 57.683M80.485 56.873L80.553 56.9C80.636 56.879 80.745 56.906 80.902 56.988 81.125 57.095 81.214 57.193 81.222 57.3 81.357 57.412 81.478 57.537 81.585 57.674L82.368 57.064A3.45 3.45 0 0 0 80.823 55.941zM77.699 57.673A2.5 2.5 0 0 1 78.803 56.873L78.465 55.939A3.5 3.5 0 0 0 76.917 57.06zM77.6 60.567A2.5 2.5 0 0 1 77.213 59.594 0.26 0.26 0 0 1 77.071 59.358L77.07 59.276 76.186 59.307C76.209 59.947 76.409 60.579 76.776 61.123zM80.321 61.558A2.45 2.45 0 0 1 78.962 61.556L78.686 62.511A3.45 3.45 0 0 0 80.596 62.513zM75.968 59.185C75.968 58.827 76.02 58.482 76.114 58.154L76.32 58.19C76.428 58.211 76.479 58.219 76.487 58.194L76.509 58.125C76.517 58.1 76.472 58.078 76.371 58.03L76.183 57.939A3.68 3.68 0 0 1 79.529 55.513L79.561 55.717C79.574 55.828 79.582 55.877 79.609 55.877H79.681C79.707 55.877 79.713 55.828 79.729 55.717L79.759 55.513A3.675 3.675 0 0 1 83.101 57.945L82.914 58.035C82.811 58.083 82.768 58.106 82.775 58.132L82.798 58.201C82.806 58.227 82.857 58.219 82.965 58.197L83.168 58.162A3.665 3.665 0 0 1 81.887 62.089L81.743 61.942C81.667 61.86 81.632 61.826 81.609 61.84L81.551 61.883C81.529 61.899 81.552 61.944 81.606 62.042L81.703 62.225A3.67 3.67 0 0 1 79.64 62.858 3.66 3.66 0 0 1 77.571 62.222L77.669 62.038C77.723 61.939 77.745 61.894 77.723 61.88L77.665 61.837C77.644 61.82 77.607 61.856 77.53 61.938L77.386 62.084A3.67 3.67 0 0 1 75.968 59.185M79.258 58.477A0.814 0.814 0 1 1 80.022 59.915 0.814 0.814 0 0 1 79.258 58.477M12.853 59.185A7.743 7.743 0 1 1 28.337 59.185 7.743 7.743 0 0 1 12.853 59.185M15.807 59.185A4.896 4.896 0 0 0 20.705 64.082 4.898 4.898 0 1 0 15.807 59.185M25.475 59.185A4.769 4.769 0 0 1 15.98 59.833C16.39 62.007 18.342 63.651 20.688 63.651 23.262 63.651 25.361 61.67 25.47 59.185zM16.751 57.409A4.23 4.23 0 0 1 24.626 57.338 4.334 4.334 0 1 1 16.751 57.409M20.705 54.959A4.225 4.225 0 0 0 20.705 63.409C23.038 63.409 24.928 61.518 24.928 59.185S23.039 54.959 20.705 54.959M17.032 59.185C17.032 58.827 17.083 58.482 17.178 58.154L17.383 58.19C17.493 58.211 17.543 58.219 17.551 58.194L17.573 58.125C17.581 58.1 17.537 58.078 17.436 58.03L17.25 57.939A3.675 3.675 0 0 1 20.596 55.513L20.626 55.717C20.64 55.828 20.648 55.877 20.673 55.877H20.747C20.773 55.877 20.78 55.828 20.795 55.717L20.825 55.513A3.67 3.67 0 0 1 24.166 57.945L23.979 58.035C23.878 58.083 23.833 58.106 23.842 58.132L23.864 58.201C23.872 58.227 23.922 58.219 24.031 58.197L24.237 58.162A3.67 3.67 0 0 1 22.955 62.089L22.811 61.942C22.735 61.86 22.7 61.826 22.678 61.84L22.619 61.883C22.597 61.899 22.62 61.944 22.674 62.042L22.771 62.225A3.67 3.67 0 0 1 20.707 62.858 3.66 3.66 0 0 1 18.639 62.222L18.736 62.038C18.789 61.939 18.812 61.894 18.79 61.88L18.732 61.837C18.709 61.82 18.674 61.856 18.598 61.938L18.455 62.084A3.65 3.65 0 0 1 17.032 59.185M21.385 61.558A2.46 2.46 0 0 1 20.024 61.556L19.749 62.511C20.367 62.689 21.029 62.694 21.66 62.513zM18.664 60.567A2.45 2.45 0 0 1 18.244 59.272L17.252 59.307A3.46 3.46 0 0 0 17.839 61.123zM18.764 57.673C18.866 57.543 18.979 57.425 19.101 57.319 19.116 57.213 19.198 57.113 19.379 57.016 19.563 56.91 19.682 56.878 19.775 56.908L19.867 56.873 19.529 55.939A3.5 3.5 0 0 0 17.98 57.06zM21.549 56.873C21.987 57.034 22.368 57.314 22.649 57.675L23.433 57.065C23.037 56.559 22.503 56.165 21.888 55.942zM23.375 57.683L22.802 58.218C22.713 58.294 22.676 58.332 22.701 58.413L22.774 58.634C22.782 58.662 22.794 58.681 22.81 58.695L22.945 58.712A0.3 0.3 0 0 1 23.08 58.749L23.747 58.83A0.156 0.156 0 0 0 23.848 58.635L23.571 57.784A0.155 0.155 0 0 0 23.375 57.683M22.958 61.259L22.272 60.879C22.171 60.818 22.125 60.793 22.055 60.844L21.867 60.981C21.797 61.032 21.805 61.086 21.832 61.199L21.981 61.968A0.154 0.154 0 0 0 22.198 62.003L22.923 61.477A0.156 0.156 0 0 0 22.958 61.259M19.429 61.967L19.527 61.468C19.323 61.365 19.086 61.233 19.224 60.958L19.277 60.817A0.3 0.3 0 0 0 19.14 60.879L18.455 61.259A0.155 0.155 0 0 0 18.488 61.476L19.213 62.002A0.153 0.153 0 0 0 19.429 61.967M17.664 58.829L18.442 58.734C18.559 58.724 18.612 58.715 18.639 58.633L18.71 58.412C18.736 58.331 18.697 58.293 18.61 58.217L18.036 57.682A0.157 0.157 0 0 0 17.84 57.782L17.564 58.634A0.153 0.153 0 0 0 17.664 58.829M20.102 56.182L20.435 56.892C20.481 57 20.503 57.048 20.59 57.048H20.822C20.906 57.048 20.931 57 20.976 56.892L21.308 56.182A0.153 0.153 0 0 0 21.153 56.029H20.258A0.154 0.154 0 0 0 20.102 56.182M23.143 59.554A2.5 2.5 0 0 1 22.747 60.57L23.57 61.127A3.45 3.45 0 0 0 24.161 59.312L23.271 59.28A0.5 0.5 0 0 1 23.143 59.554M19.899 61.318L20.479 60.55C20.788 60.604 21.116 60.55 21.406 60.376 21.7 60.2 21.903 59.931 21.998 59.628L22.945 59.477C23.029 59.477 23.096 59.42 23.095 59.353L23.089 58.984C23.087 58.919 23.017 58.865 22.934 58.867L21.98 58.749A1.355 1.355 0 0 0 20.421 57.892L19.817 57.15C19.773 57.077 19.692 57.046 19.635 57.081L19.319 57.271C19.26 57.306 19.25 57.391 19.293 57.464L19.667 58.35A1.35 1.35 0 0 0 19.705 60.126L19.363 61.022C19.322 61.096 19.336 61.181 19.395 61.215L19.719 61.394C19.778 61.427 19.857 61.392 19.899 61.318M19.892 59.185A0.813 0.813 0 1 1 21.518 59.183 0.813 0.813 0 0 1 19.892 59.185M2.055 58.607C1.474 58.007 1.064 57.397 0.868 56.823L0.953 56.833C1.331 56.871 1.7 56.892 2.034 56.947A4.4 4.4 0 0 0 2.646 58.438C2.931 58.461 3.293 58.477 3.757 58.481A1 1 0 0 1 3.788 58.581S3.828 58.691 3.72 58.691C2.92 58.688 2.406 58.654 2.055 58.607M95.775 49.754C96.308 49.73 96.828 49.72 97.149 49.745 98.101 49.817 98.67 49.819 98.906 50.111A0.6 0.6 0 0 0 98.676 50.113C98.291 50.174 97.992 50.273 97.587 50.177zM55.47 62.807C55.979 62.798 59.001 62.9 60.361 62.994 60.896 63.032 61.533 63.256 61.533 63.256S61.883 63.396 62.224 62.929C63.004 61.855 63.241 61.467 63.65 60.596 63.955 59.949 64.041 59.711 63.669 59.658 63.298 59.607 63.375 59.634 63.375 59.634L61.275 62.505zM70.741 59.267L70.61 63.582H61.78L61.013 63.335H58.298S30.652 63.582 30.324 63.582C29.995 63.582 29.882 63.417 29.882 63.417V59.753C34.765 59.697 66.665 59.316 70.741 59.267M63.7 50.317C63.629 50.509 63.534 50.746 63.41 51.036 62.883 52.283 61.616 55.243 59.1 59.25L36.725 59.519C36.708 58.697 36.594 52.098 37.227 50.43L37.236 50.409C45.763 50.873 63.439 50.324 63.439 50.324zM69.271 59.129L59.286 59.248C61.772 55.275 63.028 52.338 63.556 51.098 63.691 50.78 63.793 50.52 63.871 50.306 64 50.282 64.498 50.192 66.427 49.897A78 78 0 0 1 67.87 49.688C67.916 52.38 68.52 55.855 69.271 59.129M67.882 48.59L67.876 48.81C67.443 48.893 67.038 48.974 66.659 49.051A26 26 0 0 1 64.107 49.448L64.11 49.429C64.116 49.415 64.167 49.327 64.24 49.19A74 74 0 0 0 67.882 48.59M38.802 49.233A2.06 2.06 0 0 0 37.789 49.527C32.766 49.229 26.64 48.846 22.951 48.896 17.468 48.968 12.976 50.639 10.312 51.806 7.645 52.972 6.716 53.596 7.66 53.342A18 18 0 0 0 10.405 52.375C11.569 51.858 13.474 50.916 16.831 50.36 24.941 49.019 28.238 49.799 36.362 50.354 36.591 50.371 36.827 50.385 37.072 50.399 36.732 51.329 36.609 53.623 36.568 55.673 36.532 57.487 36.561 59.131 36.569 59.519L29.881 59.597C29.266 55.005 25.841 51.239 20.643 51.211 15.01 51.182 12.169 54.485 12.159 58.883 12.102 60.358 11.988 61.485 11.585 62.458 11.469 62.732 11.332 62.685 11.332 62.685 7.989 62.425 4.777 60.956 2.783 59.283 3.071 59.304 3.389 59.315 3.724 59.312 5.074 59.302 4.247 57.877 3.589 57.069 2.929 56.26 1.776 56.3 1.091 56.203 0.965 56.183 0.847 56.168 0.738 56.149V56.098C0.738 55.591 2.585 54.152 7.087 52.564 6.957 52.628 6.841 52.693 6.747 52.755 6.069 53.209 5.926 53.407 5.926 53.407S4.313 54.143 3.648 54.467C2.982 54.793 2.558 55.319 2.586 55.417 2.614 55.517 2.571 55.559 3.52 55.02 4.232 54.617 7.652 52.759 10.104 51.431 13.448 49.696 17.711 48.509 25.059 48.442 31.497 48.385 34.693 48.765 34.693 48.765S35.092 49.022 36.164 49.107C36.952 49.17 37.877 49.208 38.802 49.233M20.571 50.854C25.493 50.879 28.823 54.256 29.687 58.513 28.823 54.251 25.545 50.383 20.625 50.357 15.24 50.329 12.351 53.813 12.106 57.945 12.349 53.842 15.188 50.824 20.571 50.854M62.242 47.685L63.85 47.71 62.917 46.998C62.729 47.206 62.529 47.412 62.317 47.615zM79.415 50.719C85.348 50.719 88.107 53.327 88.506 56.554 88.108 53.327 85.411 50.358 79.479 50.358 74.104 50.358 71.137 53.481 70.833 56.27 71.135 53.504 74.042 50.719 79.415 50.719M66.299 43.192L66.453 42.662S60.318 42.163 57.436 42.198L57.825 42.215C61.36 42.391 65.338 42.933 65.338 42.933L66.203 43.045 66.168 43.165C65.968 43.141 65.508 43.088 64.506 42.981 63.281 42.828 60.479 42.503 57.818 42.372 54.864 42.224 53.139 42.372 53.139 42.372S50.963 43.873 49.057 45.408C47.372 46.766 44.362 49.339 44.362 49.339S55.423 49.256 56.321 49.256C59.888 49.256 60.787 48.855 62.212 47.502 63.977 45.824 64.841 43.822 65.068 43.234L65.22 43.254C65.337 43.268 65.466 43.283 65.606 43.297L65.52 43.576 65.193 43.325C65.122 43.504 65.025 43.733 64.907 43.988L65.387 43.996 65.261 44.39 64.86 44.084A10 10 0 0 1 64.593 44.611L64.558 44.675 65.163 44.685 65.005 45.153 64.503 44.771C64.39 44.974 64.261 45.189 64.118 45.411L64.909 45.424C64.84 45.619 64.769 45.811 64.699 45.998L64.057 45.507C63.915 45.723 63.762 45.945 63.595 46.168L64.627 46.185C64.529 46.433 64.435 46.671 64.34 46.891L63.523 46.266C63.361 46.477 63.188 46.691 63.002 46.902L64.324 46.923A8 8 0 0 1 63.974 47.633C63.739 48.05 63.514 48.378 63.255 48.634L63.066 48.49C63.066 48.323 62.944 48.199 62.789 48.199A0.3 0.3 0 0 0 62.702 48.212L62.137 47.781C61.241 48.603 60.503 49.048 59.134 49.258L59.186 49.257C60.915 49.238 62.022 49.198 62.77 49.097 62.884 49.032 62.998 48.959 63.11 48.877 63.499 48.592 63.795 48.195 64.111 47.633 64.66 46.662 65.311 44.699 65.736 43.312L66.111 43.35C65.763 44.503 65.068 46.792 64.738 47.737L64.23 47.74A5 5 0 0 1 63.266 48.952C62.942 49.253 62.58 49.299 62.259 49.415A12 12 0 0 0 63.322 49.312C63.547 49.284 63.792 49.251 64.052 49.217 63.985 49.343 63.934 49.434 63.915 49.469 62.242 49.634 61.19 49.575 61.19 49.575S46.174 49.993 40.845 49.703A572 572 0 0 1 37.977 49.538 2.35 2.35 0 0 1 39.172 49.247L39.078 49.237C41.323 49.289 43.466 49.254 43.466 49.254S45.634 47.441 47.946 45.671 52.277 42.502 52.277 42.502 52.48 42.353 52.445 42.269C52.419 42.201 51.986 41.983 50.814 41.889 52 41.583 54.654 41.18 59.776 41.586 62.841 41.83 64.923 42.047 66.319 42.218 66.465 42.332 66.599 42.457 66.7 42.596L66.743 42.667 66.879 42.69C66.812 42.545 66.65 42.381 66.48 42.239 68.41 42.48 68.936 42.629 68.936 42.629L69.065 42.759C69.791 42.801 71.305 42.897 71.88 42.985 72.068 43.013 72.418 43.101 72.861 43.665 73.554 43.718 74.306 43.784 74.669 43.839 74.846 43.867 75.166 43.946 75.571 44.424 76.298 44.48 77.114 44.55 77.496 44.608 77.669 44.634 77.978 44.711 78.372 45.161 79.075 45.215 79.848 45.282 80.213 45.338 80.394 45.366 80.719 45.445 81.132 45.941L81.159 45.948C81.823 46.001 82.525 46.062 82.87 46.115 83.042 46.141 83.348 46.217 83.737 46.658 84.449 46.712 85.238 46.78 85.612 46.837 85.797 46.866 86.137 46.95 86.571 47.489 90.938 48.718 93.731 49.358 97.565 50.254 98.295 50.425 98.882 49.993 98.991 50.282 99.034 50.389 98.996 51.112 98.791 52.141 98.958 52.146 99.07 52.284 99.045 52.452L98.8 54.033A0.38 0.38 0 0 1 98.44 54.344H98.189C97.82 55.399 97.296 56.531 96.571 57.571A9.4 9.4 0 0 1 94.26 59.869H97.033C97.204 59.869 97.29 60.009 97.222 60.179L96.993 60.767A0.51 0.51 0 0 1 96.56 61.077H91.85C91.126 61.32 90.356 61.477 89.546 61.535 88.753 61.592 88.897 61.393 88.897 61.393L88.502 56.949C88.104 53.722 85.344 51.112 79.411 51.112 73.855 51.112 70.936 54.091 70.806 56.948L70.742 59.115 69.429 59.131C68.671 55.845 68.065 52.357 68.024 49.671 68.666 49.588 68.485 49.634 68.864 49.547 69.419 49.418 74.067 49.029 79.3 48.9 84.532 48.772 93.197 50.207 94.558 50.271S94.444 49.804 91.487 49.055C88.533 48.306 86.734 48.09 80.686 47.776 75.813 47.523 71.236 48.181 68.032 48.785L68.037 48.563A65 65 0 0 0 71.032 47.912C72.585 47.533 69.386 47.658 68.277 47.691L68.064 47.696C68.144 45.414 68.279 42.908 68.279 42.908L68.11 42.888S67.985 45.41 67.908 47.7C67.152 47.716 65.912 47.728 64.902 47.738 65.258 46.695 65.979 44.268 66.299 43.192M62.621 48.476A0.17 0.17 0 0 1 62.791 48.304 0.17 0.17 0 0 1 62.962 48.476C62.962 48.57 62.888 48.646 62.791 48.646A0.17 0.17 0 0 1 62.621 48.476M61.29 48.596H62.54C62.581 48.679 62.66 48.738 62.756 48.75H61.29C61.186 48.75 61.186 48.596 61.29 48.596M62.082 47.105L61.953 47.23C60.624 48.493 59.833 48.883 56.321 48.883 55.591 48.883 48.149 48.937 45.384 48.958 45.653 48.729 45.975 48.456 46.327 48.161 47.679 48.025 50.314 47.81 54.553 47.73 59.427 47.638 61.371 47.294 62.082 47.105M57.8 42.745C60.566 42.881 63.49 43.228 64.609 43.371A12.3 12.3 0 0 1 62.909 46.191C61.971 46.133 58.677 45.943 55.12 45.844 51.378 45.739 49.161 46.33 48.036 46.729 48.487 46.354 48.921 45.997 49.291 45.698 50.968 44.348 52.856 43.024 53.27 42.735 53.669 42.708 55.282 42.619 57.8 42.745M39.731 48.786C41.355 48.813 42.82 48.798 43.298 48.792 43.578 48.558 44.298 47.964 45.23 47.215 42.851 47.241 40.793 47.87 39.731 48.786M37.125 48.703C37.372 48.717 37.629 48.728 37.888 48.738 40.684 47.376 45.471 45.064 47.74 44.166 48.583 43.833 49.926 43.197 51.457 42.436A8 8 0 0 0 50.901 42.366C50.058 42.703 49.255 43.023 48.559 43.299L44.893 44.879C42.279 46.102 39.02 47.744 37.125 48.703M51.775 42.402C51.133 42.854 49.516 44.005 47.723 45.377A147 147 0 0 0 43.332 48.885C42.555 48.897 38.503 48.946 36.005 48.749A7 7 0 0 1 35.033 48.62L49.882 42.221C50.784 42.235 51.382 42.314 51.754 42.397z" fill="#d8a016" data-fill-palette-color="accent"></path></g></svg></g></svg></g><g></g></svg></g><defs></defs></svg><rect width="395.52" height="126.95040339968054" fill="none" stroke="none" visibility="hidden"></rect></g></svg></g></svg>